<svg width="120" height="28" viewBox="0 0 120 28" fill="none" xmlns="http://www.w3.org/2000/svg">
<path d="M22.0585 18.7757C22.3294 18.7757 22.552 18.8848 22.7261 19.103C22.9003 19.3212 22.9874 19.599 22.9874 19.9362C22.9874 20.5115 22.639 20.9975 21.9424 21.3942C21.2651 21.791 20.52 22.0984 19.7072 22.3167C18.9138 22.5349 18.1494 22.644 17.414 22.644C15.1692 22.644 13.3985 21.9794 12.102 20.6503C10.8054 19.3014 10.1571 17.4665 10.1571 15.1455C10.1571 13.6577 10.4377 12.3386 10.9989 11.188C11.5795 10.0375 12.3826 9.14481 13.4082 8.51002C14.4532 7.87523 15.6337 7.55784 16.9496 7.55784C18.8461 7.55784 20.3458 8.18271 21.4489 9.43244C22.552 10.6822 23.1035 12.3683 23.1035 14.4909C23.1035 15.2844 22.7551 15.6811 22.0585 15.6811H13.0889C13.2824 18.7559 14.7241 20.2933 17.414 20.2933C18.1301 20.2933 18.7493 20.1941 19.2718 19.9957C19.7943 19.7973 20.3458 19.5395 20.9264 19.2221C20.9845 19.1824 21.1393 19.103 21.3908 18.984C21.6618 18.8452 21.8843 18.7757 22.0585 18.7757ZM17.0077 9.75976C15.8852 9.75976 14.9854 10.1267 14.3081 10.8607C13.6308 11.5947 13.2244 12.6262 13.0889 13.9553H20.5781C20.52 12.6064 20.1814 11.5749 19.5621 10.8607C18.9622 10.1267 18.1107 9.75976 17.0077 9.75976Z" fill="#FFC328"/>
<path d="M33.9685 7.55784C37.3551 7.55784 39.0483 9.51179 39.0483 13.4197V21.1562C39.0483 21.6124 38.9129 21.9695 38.642 22.2274C38.3904 22.4654 38.0324 22.5845 37.5679 22.5845C37.1228 22.5845 36.7648 22.4555 36.4939 22.1976C36.2423 21.9397 36.1165 21.5926 36.1165 21.1562V13.5685C36.1165 12.3386 35.8746 11.436 35.3908 10.8607C34.9264 10.2854 34.191 9.9978 33.1847 9.9978C32.0043 9.9978 31.056 10.3747 30.34 11.1285C29.624 11.8823 29.266 12.894 29.266 14.1636V21.1562C29.266 21.5926 29.1305 21.9397 28.8596 22.1976C28.608 22.4555 28.2597 22.5845 27.8146 22.5845C27.3695 22.5845 27.0115 22.4555 26.7406 22.1976C26.4696 21.9397 26.3342 21.5926 26.3342 21.1562V9.04562C26.3342 8.62904 26.4696 8.29181 26.7406 8.03393C27.0308 7.75621 27.3889 7.61735 27.8146 7.61735C28.2403 7.61735 28.579 7.74629 28.8306 8.00417C29.0821 8.26205 29.2079 8.59928 29.2079 9.01586V10.2358C29.6724 9.36301 30.3207 8.69847 31.1528 8.24222C31.9849 7.78596 32.9235 7.55784 33.9685 7.55784Z" fill="#FFC328"/>
<path d="M54.7864 7.61735C55.2315 7.61735 55.5798 7.75621 55.8314 8.03393C56.1023 8.29181 56.2378 8.63896 56.2378 9.07538V21.2752C56.2378 23.497 55.6572 25.1732 54.4961 26.3039C53.3543 27.4346 51.6611 28 49.4162 28C47.3262 28 45.5846 27.5933 44.1912 26.78C43.4752 26.3634 43.1172 25.8675 43.1172 25.2922C43.1172 24.955 43.2043 24.6773 43.3785 24.4591C43.572 24.2409 43.8042 24.1317 44.0751 24.1317C44.3267 24.1317 44.7234 24.2805 45.2653 24.5781C45.9619 24.9153 46.6102 25.1732 47.2101 25.3517C47.81 25.5501 48.5261 25.6493 49.3582 25.6493C52.0287 25.6493 53.364 24.2706 53.364 21.5132V19.2221C52.9576 20.0949 52.3384 20.7793 51.5062 21.2752C50.6741 21.7513 49.7065 21.9893 48.6035 21.9893C47.3649 21.9893 46.2619 21.6918 45.2943 21.0967C44.3267 20.5016 43.572 19.6585 43.0301 18.5674C42.5076 17.4764 42.2464 16.2167 42.2464 14.7885C42.2464 13.3602 42.5173 12.1005 43.0592 11.0095C43.601 9.91845 44.3461 9.07538 45.2943 8.48026C46.2619 7.86531 47.3649 7.55784 48.6035 7.55784C49.6872 7.55784 50.6354 7.79588 51.4482 8.27197C52.2803 8.74806 52.9092 9.42253 53.335 10.2954V9.04562C53.335 8.6092 53.4608 8.26205 53.7123 8.00417C53.9833 7.74629 54.3413 7.61735 54.7864 7.61735ZM49.3001 19.6089C50.558 19.6089 51.5449 19.1824 52.261 18.3294C52.977 17.4764 53.335 16.2961 53.335 14.7885C53.335 13.3007 52.977 12.1303 52.261 11.2773C51.5643 10.4045 50.5773 9.96805 49.3001 9.96805C48.0229 9.96805 47.0166 10.3945 46.2812 11.2475C45.5652 12.1005 45.2072 13.2808 45.2072 14.7885C45.2072 16.2961 45.5749 17.4764 46.3103 18.3294C47.0456 19.1824 48.0423 19.6089 49.3001 19.6089Z" fill="#FFC328"/>
<path d="M61.8032 22.5845C61.3774 22.5845 61.0194 22.4654 60.7291 22.2274C60.4582 21.9893 60.3227 21.6323 60.3227 21.1562V2.76717C60.3227 2.29108 60.4582 1.93401 60.7291 1.69597C61.0194 1.43809 61.3774 1.30914 61.8032 1.30914C62.2289 1.30914 62.5772 1.43809 62.8481 1.69597C63.1191 1.93401 63.2545 2.29108 63.2545 2.76717V21.1562C63.2545 21.6323 63.1191 21.9893 62.8481 22.2274C62.5772 22.4654 62.2289 22.5845 61.8032 22.5845Z" fill="#FFC328"/>
<path d="M68.8333 22.5845C68.4076 22.5845 68.0496 22.4654 67.7593 22.2274C67.4884 21.9893 67.3529 21.6323 67.3529 21.1562V9.07538C67.3529 8.59929 67.4884 8.24222 67.7593 8.00417C68.0496 7.74629 68.4076 7.61735 68.8333 7.61735C69.2591 7.61735 69.6074 7.74629 69.8783 8.00417C70.1492 8.24222 70.2847 8.59929 70.2847 9.07538V21.1562C70.2847 21.6323 70.1492 21.9893 69.8783 22.2274C69.6074 22.4654 69.2591 22.5845 68.8333 22.5845ZM68.8333 4.70129C68.2721 4.70129 67.827 4.54259 67.498 4.2252C67.1691 3.90781 67.0046 3.49123 67.0046 2.97546C67.0046 2.4597 67.1691 2.05304 67.498 1.75548C67.827 1.43808 68.2721 1.27939 68.8333 1.27939C69.3752 1.27939 69.8106 1.43808 70.1396 1.75548C70.4879 2.05304 70.6621 2.4597 70.6621 2.97546C70.6621 3.49123 70.4976 3.90781 70.1686 4.2252C69.8396 4.54259 69.3945 4.70129 68.8333 4.70129Z" fill="#FFC328"/>
<path d="M81.9883 7.55784C83.2269 7.55784 84.3202 7.86531 85.2685 8.48026C86.2167 9.09521 86.9521 9.96805 87.4746 11.0988C88.0164 12.2295 88.2874 13.5486 88.2874 15.0563C88.2874 16.5441 88.0164 17.8632 87.4746 19.0138C86.9521 20.1643 86.207 21.057 85.2394 21.6918C84.2912 22.3266 83.2075 22.644 81.9883 22.644C80.924 22.644 79.9854 22.4158 79.1726 21.9596C78.3599 21.4835 77.7406 20.809 77.3149 19.9362V21.1264C77.3149 21.5628 77.1794 21.9199 76.9085 22.1976C76.6569 22.4555 76.3086 22.5845 75.8635 22.5845C75.4184 22.5845 75.0604 22.4555 74.7894 22.1976C74.5185 21.9199 74.3831 21.5628 74.3831 21.1264V2.73742C74.3831 2.301 74.5185 1.95385 74.7894 1.69597C75.0797 1.43809 75.4474 1.30914 75.8925 1.30914C76.3182 1.30914 76.6569 1.43809 76.9085 1.69597C77.1794 1.93401 77.3149 2.26133 77.3149 2.67791V10.2954C77.7406 9.42253 78.3599 8.74806 79.1726 8.27197C79.9854 7.79588 80.924 7.55784 81.9883 7.55784ZM81.2917 20.2635C82.5495 20.2635 83.5268 19.8073 84.2235 18.8947C84.9395 17.9822 85.2975 16.7027 85.2975 15.0563C85.2975 13.4296 84.9492 12.1799 84.2525 11.3071C83.5558 10.4144 82.5689 9.96805 81.2917 9.96805C80.0144 9.96805 79.0275 10.4144 78.3308 11.3071C77.6535 12.1997 77.3149 13.4693 77.3149 15.1158C77.3149 16.7623 77.6535 18.0318 78.3308 18.9245C79.0275 19.8172 80.0144 20.2635 81.2917 20.2635Z" fill="#FFC328"/>
<path d="M97.6871 22.644C96.2938 22.644 95.065 22.3365 94.0006 21.7215C92.9556 21.1066 92.1428 20.2338 91.5623 19.103C91.0011 17.9525 90.7205 16.6234 90.7205 15.1158C90.7205 13.5883 91.0011 12.2592 91.5623 11.1285C92.1428 9.97796 92.9556 9.09521 94.0006 8.48026C95.065 7.86531 96.2938 7.55784 97.6871 7.55784C99.0805 7.55784 100.3 7.86531 101.345 8.48026C102.409 9.09521 103.222 9.97796 103.783 11.1285C104.364 12.2592 104.654 13.5883 104.654 15.1158C104.654 16.6234 104.364 17.9525 103.783 19.103C103.222 20.2338 102.409 21.1066 101.345 21.7215C100.3 22.3365 99.0805 22.644 97.6871 22.644ZM97.6871 20.2635C98.9837 20.2635 99.9707 19.8271 100.648 18.9543C101.345 18.0814 101.693 16.8019 101.693 15.1158C101.693 13.4495 101.345 12.1799 100.648 11.3071C99.9513 10.4144 98.9644 9.96805 97.6871 9.96805C96.4099 9.96805 95.423 10.4144 94.7263 11.3071C94.0296 12.1799 93.6813 13.4495 93.6813 15.1158C93.6813 16.8019 94.02 18.0814 94.6973 18.9543C95.3939 19.8271 96.3906 20.2635 97.6871 20.2635Z" fill="#FFC328"/>
<path d="M119.565 20.1742C119.855 20.4718 120 20.819 120 21.2157C120 21.5926 119.865 21.9199 119.594 22.1976C119.342 22.4555 119.033 22.5845 118.665 22.5845C118.297 22.5845 117.959 22.4158 117.649 22.0786L113.208 16.9606L108.796 22.0786C108.486 22.4158 108.147 22.5845 107.78 22.5845C107.412 22.5845 107.093 22.4456 106.822 22.1679C106.57 21.8902 106.444 21.5628 106.444 21.1859C106.444 20.809 106.58 20.4718 106.851 20.1742L111.437 14.9968L107.083 10.0276C106.793 9.69033 106.648 9.3531 106.648 9.01586C106.648 8.63896 106.783 8.32157 107.054 8.06368C107.325 7.78596 107.635 7.6471 107.983 7.6471C108.351 7.6471 108.689 7.81572 108.999 8.15295L113.208 13.0329L117.417 8.15295C117.727 7.81572 118.075 7.6471 118.462 7.6471C118.81 7.6471 119.12 7.78596 119.391 8.06368C119.662 8.32157 119.797 8.63896 119.797 9.01586C119.797 9.39277 119.652 9.73 119.362 10.0276L115.008 14.9968L119.565 20.1742Z" fill="#FFC328"/>
<path d="M2.4093 23.4772C2.31254 23.7946 2.15773 24.0227 1.94486 24.1616C1.73199 24.3203 1.49977 24.3997 1.24819 24.3997C0.919212 24.3997 0.628935 24.2905 0.377361 24.0723C0.125787 23.8541 0 23.5665 0 23.2094C0 23.0706 0.0290278 22.9119 0.0870833 22.7333L6.87958 0.922425C6.97634 0.605031 7.13115 0.376904 7.34402 0.238044C7.55689 0.079348 7.78911 0 8.04069 0C8.36967 0 8.65995 0.109104 8.91152 0.327312C9.1631 0.54552 9.28888 0.833158 9.28888 1.19023C9.28888 1.32909 9.25985 1.48778 9.2018 1.66632L2.4093 23.4772Z" fill="#FFC328" fill-opacity="0.5"/>
</svg>
