<svg width="132" height="30" viewBox="0 0 132 30" fill="none" xmlns="http://www.w3.org/2000/svg">
<path d="M24.2644 20.1169C24.5624 20.1169 24.8072 20.2338 24.9988 20.4676C25.1904 20.7014 25.2862 20.9989 25.2862 21.3602C25.2862 21.9766 24.903 22.4973 24.1367 22.9224C23.3916 23.3475 22.5721 23.6769 21.678 23.9107C20.8053 24.1445 19.9644 24.2614 19.1555 24.2614C16.6862 24.2614 14.7384 23.5494 13.3122 22.1254C11.886 20.6801 11.1729 18.7141 11.1729 16.2274C11.1729 14.6333 11.4815 13.2199 12.0988 11.9872C12.7375 10.7545 13.6209 9.79803 14.7491 9.1179C15.8986 8.43777 17.1971 8.0977 18.6446 8.0977C20.7308 8.0977 22.3805 8.7672 23.5939 10.1062C24.8072 11.4452 25.4139 13.2518 25.4139 15.526C25.4139 16.3762 25.0307 16.8012 24.2644 16.8012H14.3978C14.6107 20.0956 16.1966 21.7428 19.1555 21.7428C19.9431 21.7428 20.6243 21.6365 21.1991 21.424C21.7738 21.2115 22.3805 20.9352 23.0191 20.5951C23.083 20.5526 23.2533 20.4676 23.53 20.34C23.828 20.1913 24.0728 20.1169 24.2644 20.1169ZM18.7085 10.4569C17.4738 10.4569 16.484 10.8501 15.7389 11.6365C14.9939 12.4229 14.5469 13.5281 14.3978 14.9521H22.6359C22.5721 13.5069 22.1996 12.4017 21.5184 11.6365C20.8585 10.8501 19.9218 10.4569 18.7085 10.4569Z" fill="#FFCC00"/>
<path d="M37.3655 8.0977C41.0907 8.0977 42.9533 10.1912 42.9533 14.3783V22.6674C42.9533 23.1562 42.8043 23.5388 42.5063 23.8151C42.2296 24.0701 41.8357 24.1977 41.3248 24.1977C40.8352 24.1977 40.4414 24.0595 40.1434 23.7832C39.8667 23.5069 39.7283 23.135 39.7283 22.6674V14.5377C39.7283 13.2199 39.4622 12.2529 38.9301 11.6365C38.4192 11.0201 37.6103 10.712 36.5033 10.712C35.2048 10.712 34.1617 11.1158 33.3741 11.9234C32.5865 12.7311 32.1927 13.815 32.1927 15.1753V22.6674C32.1927 23.135 32.0437 23.5069 31.7457 23.7832C31.4689 24.0595 31.0858 24.1977 30.5962 24.1977C30.1066 24.1977 29.7127 24.0595 29.4147 23.7832C29.1167 23.5069 28.9677 23.135 28.9677 22.6674V9.69176C28.9677 9.24542 29.1167 8.8841 29.4147 8.6078C29.734 8.31024 30.1278 8.16146 30.5962 8.16146C31.0645 8.16146 31.437 8.29961 31.7137 8.57592C31.9905 8.85222 32.1288 9.21354 32.1288 9.65987V10.967C32.6397 10.0318 33.3528 9.31981 34.2682 8.83097C35.1835 8.34212 36.2159 8.0977 37.3655 8.0977Z" fill="#FFCC00"/>
<path d="M60.2652 8.16146C60.7548 8.16146 61.138 8.31024 61.4147 8.6078C61.7127 8.8841 61.8617 9.25605 61.8617 9.72364V22.7949C61.8617 25.1753 61.2231 26.9713 59.9459 28.1828C58.69 29.3943 56.8273 30 54.358 30C52.059 30 50.1432 29.5643 48.6105 28.6929C47.8229 28.2466 47.4291 27.7152 47.4291 27.0988C47.4291 26.7375 47.5249 26.44 47.7165 26.2062C47.9293 25.9724 48.1848 25.8555 48.4828 25.8555C48.7595 25.8555 49.1959 26.0149 49.792 26.3337C50.5583 26.695 51.2714 26.9713 51.9313 27.1626C52.5912 27.3751 53.3788 27.4814 54.2942 27.4814C57.2318 27.4814 58.7006 26.0043 58.7006 23.0499V20.5951C58.2536 21.5303 57.5724 22.2635 56.657 22.7949C55.7417 23.305 54.6773 23.56 53.464 23.56C52.1016 23.56 50.8882 23.2412 49.8239 22.6036C48.7595 21.966 47.9293 21.0627 47.3333 19.8937C46.7585 18.7247 46.4712 17.3751 46.4712 15.8448C46.4712 14.3145 46.7692 12.9649 47.3652 11.7959C47.9613 10.6269 48.7808 9.72364 49.8239 9.08602C50.8882 8.42714 52.1016 8.0977 53.464 8.0977C54.6561 8.0977 55.6991 8.35275 56.5932 8.86285C57.5085 9.37294 58.2004 10.0956 58.6687 11.0308V9.69176C58.6687 9.22417 58.807 8.85222 59.0838 8.57592C59.3818 8.29961 59.7756 8.16146 60.2652 8.16146ZM54.2303 21.0095C55.614 21.0095 56.6996 20.5526 57.4872 19.6387C58.2749 18.7247 58.6687 17.4601 58.6687 15.8448C58.6687 14.2508 58.2749 12.9968 57.4872 12.0828C56.7209 11.1477 55.6353 10.6801 54.2303 10.6801C52.8254 10.6801 51.7184 11.137 50.9095 12.051C50.1219 12.9649 49.7281 14.2295 49.7281 15.8448C49.7281 17.4601 50.1325 18.7247 50.9415 19.6387C51.7504 20.5526 52.8467 21.0095 54.2303 21.0095Z" fill="#FFCC00"/>
<path d="M67.9837 24.1977C67.5154 24.1977 67.1216 24.0701 66.8023 23.8151C66.5042 23.56 66.3552 23.1775 66.3552 22.6674V2.96484C66.3552 2.45475 66.5042 2.07217 66.8023 1.81712C67.1216 1.54082 67.5154 1.40267 67.9837 1.40267C68.452 1.40267 68.8352 1.54082 69.1332 1.81712C69.4312 2.07217 69.5802 2.45475 69.5802 2.96484V22.6674C69.5802 23.1775 69.4312 23.56 69.1332 23.8151C68.8352 24.0701 68.452 24.1977 67.9837 24.1977Z" fill="#FFCC00"/>
<path d="M75.7169 24.1977C75.2486 24.1977 74.8548 24.0701 74.5355 23.8151C74.2374 23.56 74.0884 23.1775 74.0884 22.6674V9.72364C74.0884 9.21354 74.2374 8.83097 74.5355 8.57592C74.8548 8.29961 75.2486 8.16146 75.7169 8.16146C76.1852 8.16146 76.5684 8.29961 76.8664 8.57592C77.1644 8.83097 77.3134 9.21354 77.3134 9.72364V22.6674C77.3134 23.1775 77.1644 23.56 76.8664 23.8151C76.5684 24.0701 76.1852 24.1977 75.7169 24.1977ZM75.7169 5.03712C75.0996 5.03712 74.61 4.86708 74.2481 4.52702C73.8862 4.18695 73.7053 3.74062 73.7053 3.18801C73.7053 2.63541 73.8862 2.1997 74.2481 1.88089C74.61 1.54082 75.0996 1.37079 75.7169 1.37079C76.3129 1.37079 76.7919 1.54082 77.1538 1.88089C77.5369 2.1997 77.7285 2.63541 77.7285 3.18801C77.7285 3.74062 77.5476 4.18695 77.1857 4.52702C76.8238 4.86708 76.3342 5.03712 75.7169 5.03712Z" fill="#FFCC00"/>
<path d="M90.1875 8.0977C91.5498 8.0977 92.7526 8.42714 93.7956 9.08602C94.8387 9.74489 95.6476 10.6801 96.2224 11.8916C96.8184 13.103 97.1164 14.5164 97.1164 16.1317C97.1164 17.7258 96.8184 19.1392 96.2224 20.3719C95.6476 21.6047 94.828 22.5611 93.7637 23.2412C92.7206 23.9214 91.5285 24.2614 90.1875 24.2614C89.0167 24.2614 87.9842 24.017 87.0902 23.5282C86.1961 23.0181 85.5149 22.2954 85.0466 21.3602V22.6355C85.0466 23.1031 84.8976 23.4856 84.5996 23.7832C84.3229 24.0595 83.9397 24.1977 83.4501 24.1977C82.9605 24.1977 82.5667 24.0595 82.2687 23.7832C81.9706 23.4856 81.8216 23.1031 81.8216 22.6355V2.93296C81.8216 2.46537 81.9706 2.09343 82.2687 1.81712C82.588 1.54082 82.9924 1.40267 83.482 1.40267C83.9503 1.40267 84.3229 1.54082 84.5996 1.81712C84.8976 2.07217 85.0466 2.42286 85.0466 2.8692V11.0308C85.5149 10.0956 86.1961 9.37294 87.0902 8.86285C87.9842 8.35275 89.0167 8.0977 90.1875 8.0977ZM89.4211 21.7109C90.8048 21.7109 91.8798 21.2221 92.6461 20.2444C93.4337 19.2667 93.8276 17.8958 93.8276 16.1317C93.8276 14.3889 93.4444 13.0499 92.678 12.1147C91.9117 11.1583 90.8261 10.6801 89.4211 10.6801C88.0162 10.6801 86.9305 11.1583 86.1642 12.1147C85.4192 13.0712 85.0466 14.4314 85.0466 16.1955C85.0466 17.9596 85.4192 19.3198 86.1642 20.2763C86.9305 21.2327 88.0162 21.7109 89.4211 21.7109Z" fill="#FFCC00"/>
<path d="M107.456 24.2614C105.924 24.2614 104.572 23.932 103.401 23.2731C102.252 22.6142 101.357 21.6791 100.719 20.4676C100.102 19.2348 99.7928 17.8108 99.7928 16.1955C99.7928 14.5589 100.102 13.1349 100.719 11.9234C101.357 10.6907 102.252 9.74489 103.401 9.08602C104.572 8.42714 105.924 8.0977 107.456 8.0977C108.989 8.0977 110.33 8.42714 111.479 9.08602C112.65 9.74489 113.544 10.6907 114.162 11.9234C114.8 13.1349 115.12 14.5589 115.12 16.1955C115.12 17.8108 114.8 19.2348 114.162 20.4676C113.544 21.6791 112.65 22.6142 111.479 23.2731C110.33 23.932 108.989 24.2614 107.456 24.2614ZM107.456 21.7109C108.882 21.7109 109.968 21.2433 110.713 20.3082C111.479 19.373 111.863 18.0021 111.863 16.1955C111.863 14.4102 111.479 13.0499 110.713 12.1147C109.947 11.1583 108.861 10.6801 107.456 10.6801C106.051 10.6801 104.966 11.1583 104.199 12.1147C103.433 13.0499 103.05 14.4102 103.05 16.1955C103.05 18.0021 103.422 19.373 104.167 20.3082C104.934 21.2433 106.03 21.7109 107.456 21.7109Z" fill="#FFCC00"/>
<path d="M131.522 21.6153C131.841 21.9341 132.001 22.306 132.001 22.7311C132.001 23.135 131.852 23.4856 131.554 23.7832C131.277 24.0595 130.937 24.1977 130.532 24.1977C130.128 24.1977 129.755 24.017 129.414 23.6557L124.529 18.1721L119.676 23.6557C119.335 24.017 118.963 24.1977 118.558 24.1977C118.154 24.1977 117.802 24.0489 117.504 23.7513C117.228 23.4538 117.089 23.1031 117.089 22.6992C117.089 22.2954 117.238 21.9341 117.536 21.6153L122.581 16.068L117.792 10.7438C117.472 10.3825 117.313 10.0212 117.313 9.65987C117.313 9.25605 117.462 8.91598 117.76 8.63968C118.058 8.34212 118.398 8.19334 118.782 8.19334C119.186 8.19334 119.559 8.374 119.899 8.73532L124.529 13.9638L129.159 8.73532C129.5 8.374 129.883 8.19334 130.309 8.19334C130.692 8.19334 131.032 8.34212 131.33 8.63968C131.628 8.91598 131.777 9.25605 131.777 9.65987C131.777 10.0637 131.618 10.425 131.298 10.7438L126.509 16.068L131.522 21.6153Z" fill="#FFCC00"/>
<path d="M2.65024 25.1542C2.54381 25.4943 2.37351 25.7387 2.13935 25.8875C1.90519 26.0575 1.64975 26.1425 1.37302 26.1425C1.01114 26.1425 0.69183 26.0256 0.415098 25.7918C0.138366 25.558 0 25.2498 0 24.8673C0 24.7185 0.0319306 24.5484 0.0957919 24.3572L7.56756 0.988313C7.674 0.648248 7.84429 0.403826 8.07845 0.255047C8.31261 0.0850157 8.56805 0 8.84479 0C9.20667 0 9.52597 0.116897 9.80271 0.350692C10.0794 0.584486 10.2178 0.892669 10.2178 1.27524C10.2178 1.42402 10.1859 1.59405 10.122 1.78534L2.65024 25.1542Z" fill="#FFCC00" fill-opacity="0.5"/>
</svg>
